<svg fill="none" xmlns="http://www.w3.org/2000/svg" viewBox="0 0 30 30"><path d="M24 28.5H6A1.5 1.5 0 0 1 4.5 27V16.393c0-.905-.503-1.693-1.245-2.1L13.922 3.271a1.5 1.5 0 0 1 2.156 0l10.667 11.022a2.392 2.392 0 0 0-1.245 2.1V27a1.5 1.5 0 0 1-1.5 1.5Z" stroke-width="3"/><g class='face'><circle class="eye1" cx="12.5" cy="15.5" r="1.5"/><circle class="eye2" cx="17.5" cy="15.5" r="1.5"/><path d="M10 18.221a5.77 5.77 0 0 0 5 2.887 5.77 5.77 0 0 0 5-2.887" stroke-width="2" stroke-linecap="round"/></g></svg>