<svg xmlns="http://www.w3.org/2000/svg" viewBox="0 0 500 500"><path d="M106.5 500l93.4-280.2h-57.7L215.4 0l63 .3c36.2 0 65.7 27.7 65.7 61.8 0 14.3-5.1 28-14.5 38.9 1.9 4.3 3.3 8.7 4.1 13.2h59.7L106.5 500zm45.3-287.1h57.7l-82.8 248.3 253-340h-51.9l-.4-3c-.8-5.6-2.4-11.1-5-16.2l-1.1-2.1 1.6-1.8c9.2-9.9 14.3-22.7 14.3-35.9 0-30.3-26.4-54.9-58.8-54.9l-58-.3-68.6 205.9z"/><path d="M309.2 137.5c1.5-3.9 2.3-8.1 2.3-12.5 0-11.3-5.3-21.4-13.8-28.5 13.8-6.4 23.3-19.4 23.3-34.4 0-21.3-19.1-38.6-42.5-38.6l-46.2-.2-57.7 173.2h57.7l-57.7 173.2 172.8-232.2h-38.2z"/></svg>